<svg width="40" height="18" fill="none" xmlns="http://www.w3.org/2000/svg"><path d="M1.88 15.131c.628 0 1.187-.106 1.679-.32.499-.213.918-.513 1.256-.899.338-.385.596-.853.773-1.403.185-.55.278-1.166.278-1.847V0h3.25v10.662c0 1.059-.17 2.04-.508 2.943-.33.894-.81 1.67-1.437 2.327A6.565 6.565 0 014.9 17.458c-.894.361-1.901.542-3.02.542-1.128 0-2.139-.18-3.032-.542a6.692 6.692 0 01-2.284-1.526 6.9 6.9 0 01-1.437-2.327c-.33-.903-.495-1.884-.495-2.943V0h3.25v10.65c0 .681.088 1.297.265 1.847.185.55.447 1.021.785 1.415.346.386.765.686 1.256.9.5.213 1.063.32 1.692.32zM27.506 0v17.803h-1.668c-.257 0-.475-.041-.652-.123a1.624 1.624 0 01-.495-.443L15.57 5.368a17 17 0 01.072 1.502v10.933H12.78V0h1.703c.137 0 .254.008.35.025a.636.636 0 01.267.073c.08.033.157.087.229.16.072.066.153.157.242.271l9.156 11.918c-.024-.287-.044-.57-.06-.85-.016-.278-.025-.537-.025-.775V0h2.864zM46.362 0l-7.054 17.803h-2.936L29.318 0h2.609c.282 0 .511.07.688.21.178.139.31.32.399.541l4.12 10.86c.136.352.265.742.386 1.169.129.418.25.857.362 1.317.097-.46.202-.899.314-1.317.113-.427.238-.817.375-1.17L42.666.751a1.18 1.18 0 01.374-.517 1.08 1.08 0 01.7-.234h2.622z" fill="#4592FF"/></svg>